<?xml version="1.0" encoding="utf-8"?>
<!-- Generator: Adobe Illustrator 23.0.3, SVG Export Plug-In . SVG Version: 6.00 Build 0)  -->
<svg version="1.1" id="Layer_1" xmlns="http://www.w3.org/2000/svg" xmlns:xlink="http://www.w3.org/1999/xlink" x="0px" y="0px"
	 viewBox="0 0 32 32" style="enable-background:new 0 0 32 32;" xml:space="preserve">
<g>
	<g>
		<path d="M16,31C7.7285156,31,1,24.2714844,1,16C1,7.7290039,7.7285156,1,16,1s15,6.7290039,15,15
			C31,24.2714844,24.2714844,31,16,31z M16,3C8.8320313,3,3,8.831543,3,16c0,7.1679688,5.8320313,13,13,13s13-5.8320313,13-13
			C29,8.831543,23.1679688,3,16,3z"/>
	</g>
	<g>
		<g>
			<path d="M20.3270168,24h-8.6540346c-0.9200039,0-1.6658134-0.7458096-1.6658134-1.6658134v-0.0000076
				c0-3.3097458,2.6830788-5.9928265,5.9928255-5.9928265h0.0000114c3.3097458,0,5.9928265,2.6830807,5.9928265,5.9928265v0.0000076
				C21.9928322,23.2541904,21.2470207,24,20.3270168,24z"/>
		</g>
		<g>
			<path d="M16,8c-1.8053246,0-3.2688169,1.4634924-3.2688169,3.2688169v3.2688179h6.5376348v-3.2688179
				C19.2688179,9.4634924,17.8053246,8,16,8z"/>
		</g>
	</g>
</g>
</svg>
